<?xml version="1.0" encoding="utf-8"?>
<!-- Generator: Adobe Illustrator 16.0.0, SVG Export Plug-In . SVG Version: 6.00 Build 0)  -->
<!DOCTYPE svg PUBLIC "-//W3C//DTD SVG 1.1//EN" "http://www.w3.org/Graphics/SVG/1.1/DTD/svg11.dtd">
<svg version="1.1" id="Layer_1" xmlns="http://www.w3.org/2000/svg" xmlns:xlink="http://www.w3.org/1999/xlink" x="0px" y="0px"
	 width="290px" height="50px" viewBox="0 0 290 50" enable-background="new 0 0 290 50" xml:space="preserve">
<g>
	<path fill="#3651F1" d="M63.469,20.23c0.077-0.064,0.175-0.104,0.257-0.166c0.754-1.444,1.867-2.685,3.391-3.443
		c0.208-0.124,0.361-0.209,0.479-0.27c0.128-2.72,0.83-5.284,1.269-7.952c0.078-0.473,0.216-0.918,0.383-1.347
		c-1.11-2.177-3.054-3.848-5.444-4.564L63.799,2.48c-0.386-0.067-0.757-0.15-1.111-0.258c-0.481-0.089-0.972-0.156-1.479-0.156
		c-4.758,0-8.618,3.669-9.011,8.325l-0.076,0.012l0.068,0.068c-0.017,0.229-0.068,0.449-0.068,0.683c0,3.609,2.12,6.699,5.167,8.165
		l-0.786,4.575L63.469,20.23z"/>
</g>
<path fill="#3651F1" stroke="#3651F1" stroke-width="0.25" stroke-miterlimit="10" d="M70.544,11.277
	c0,5.087-4.124,9.211-9.212,9.211c-5.087,0-9.21-4.124-9.21-9.211c0-5.086,4.124-9.211,9.21-9.211
	C66.42,2.066,70.544,6.19,70.544,11.277z"/>
<path fill="#3651F1" d="M58.097,37.418c2.165,4.112,0.585,9.197-3.525,11.362l0,0c-4.111,2.162-9.196,0.582-11.361-3.525
	L26.97,14.397c-2.164-4.111-0.586-9.197,3.525-11.361l0,0c4.111-2.164,9.197-0.585,11.361,3.525L58.097,37.418z"/>
<path fill="#3651F1" d="M32.097,37.418c2.164,4.112,0.586,9.197-3.525,11.362l0,0c-4.111,2.162-9.197,0.582-11.361-3.525
	L0.97,14.397C-1.194,10.286,0.385,5.2,4.497,3.036l0,0c4.11-2.164,9.197-0.585,11.36,3.525L32.097,37.418z"/>
<g>
	<path fill="#3651F1" d="M98.38,17.674c1.075-0.033,1.805,0.126,2.191,0.479c0.386,0.353,0.68,1,0.881,1.939l4.433,21.761h1.612
		l3.728-23.222c0.101-0.671,0.285-1.1,0.554-1.285c0.269-0.184,0.772-0.277,1.511-0.277h4.987c0.706,0,1.159,0.126,1.36,0.378
		c0.201,0.252,0.234,0.73,0.101,1.436L114.5,47.345c-0.168,0.939-0.453,1.578-0.856,1.914c-0.403,0.335-1.142,0.504-2.216,0.504
		h-8.664c-1.075,0-1.813-0.169-2.216-0.504c-0.403-0.336-0.689-0.975-0.856-1.914l-3.274-17.631l-3.274,17.631
		c-0.168,0.939-0.453,1.578-0.856,1.914c-0.403,0.335-1.142,0.504-2.217,0.504h-8.664c-1.075,0-1.813-0.169-2.216-0.504
		c-0.403-0.336-0.689-0.975-0.856-1.914l-5.239-28.461c-0.135-0.705-0.101-1.184,0.101-1.436c0.202-0.252,0.655-0.378,1.36-0.378
		h4.987c0.738,0,1.242,0.093,1.511,0.277c0.269,0.185,0.453,0.613,0.554,1.285l3.728,23.222h1.612l4.433-21.761
		c0.201-0.939,0.495-1.578,0.881-1.914c0.386-0.335,1.116-0.504,2.191-0.504H98.38z"/>
	<path fill="#3651F1" d="M138.729,42.559c0.974,0,1.981-0.017,3.022-0.05c1.041-0.034,2.048-0.076,3.022-0.126
		c0.974-0.051,1.872-0.109,2.695-0.177c0.822-0.067,1.52-0.118,2.09-0.151c0.404-0.033,0.713,0.009,0.932,0.126
		c0.219,0.118,0.346,0.563,0.379,1.335l0.051,3.879c0,0.672-0.109,1.091-0.328,1.26c-0.219,0.167-0.547,0.302-0.982,0.402
		c-0.604,0.134-1.369,0.294-2.291,0.479c-0.925,0.185-1.932,0.354-3.023,0.504c-1.092,0.151-2.234,0.285-3.426,0.403
		c-1.192,0.117-2.359,0.176-3.501,0.176c-2.485,0-4.609-0.319-6.372-0.957s-3.224-1.637-4.382-2.997
		c-1.159-1.359-2.007-3.09-2.544-5.188c-0.538-2.098-0.806-4.625-0.806-7.581c0-5.843,1.217-10.226,3.652-13.147
		c2.435-2.921,6.053-4.382,10.855-4.382c4.836,0,8.419,1.209,10.755,3.627c2.332,2.418,3.5,6.112,3.5,11.083v4.13
		c0,0.773-0.135,1.302-0.402,1.587c-0.27,0.286-0.773,0.429-1.512,0.429H132.13c0.033,1.914,0.554,3.282,1.562,4.105
		C134.699,42.147,136.378,42.559,138.729,42.559z M143.414,30.52c0-2.35-0.42-4.004-1.259-4.961
		c-0.84-0.957-2.301-1.436-4.382-1.436c-2.116,0-3.585,0.521-4.408,1.562c-0.823,1.041-1.251,2.653-1.285,4.835H143.414z"/>
	<path fill="#3651F1" d="M177.566,48.201c-0.975,0.604-2.133,1.049-3.476,1.334c-1.344,0.285-2.653,0.429-3.929,0.429
		c-2.184,0-4.081-0.286-5.692-0.856c-1.612-0.571-2.947-1.511-4.005-2.821c-1.058-1.31-1.855-3.039-2.393-5.188
		c-0.538-2.148-0.806-4.802-0.806-7.959c0-3.492,0.31-6.363,0.932-8.613c0.621-2.25,1.511-4.03,2.67-5.34
		c1.158-1.31,2.585-2.216,4.281-2.72c1.695-0.503,3.618-0.755,5.768-0.755c1.612,0,2.913,0.16,3.904,0.479
		c0.99,0.32,1.905,0.68,2.745,1.083V4.527c0-0.504,0.101-0.839,0.303-1.008c0.201-0.167,0.536-0.252,1.007-0.252h6.146
		c0.47,0,0.807,0.084,1.008,0.252c0.201,0.168,0.302,0.504,0.302,1.008v43.925c0,0.504-0.101,0.84-0.302,1.008
		s-0.538,0.252-1.008,0.252h-6.146c-0.471,0-0.806-0.084-1.007-0.252c-0.202-0.168-0.303-0.504-0.303-1.008V48.201z M171.874,41.904
		c0.974,0,1.923-0.051,2.847-0.151c0.923-0.101,1.871-0.285,2.846-0.554V24.979c-0.504-0.403-1.176-0.722-2.015-0.957
		c-0.84-0.234-1.764-0.353-2.771-0.353c-1.31,0-2.393,0.168-3.249,0.504c-0.856,0.336-1.528,0.881-2.016,1.637
		c-0.486,0.756-0.831,1.73-1.032,2.922c-0.201,1.192-0.302,2.662-0.302,4.407c0,1.646,0.134,3.031,0.402,4.156
		c0.269,1.126,0.646,2.023,1.134,2.695c0.486,0.672,1.083,1.158,1.788,1.461C170.212,41.753,171.001,41.904,171.874,41.904z"/>
	<path fill="#3651F1" d="M214.49,32.736c0-1.242-0.06-2.368-0.177-3.375c-0.118-1.008-0.336-1.872-0.654-2.595
		c-0.32-0.722-0.781-1.275-1.386-1.662c-0.604-0.386-1.394-0.579-2.367-0.579c-0.571,0-1.209,0.059-1.914,0.176
		c-0.706,0.118-1.395,0.244-2.065,0.378c-0.773,0.168-1.545,0.353-2.317,0.554v22.92c0,0.503-0.101,0.839-0.303,1.007
		c-0.201,0.168-0.537,0.252-1.007,0.252h-6.146c-0.471,0-0.807-0.084-1.008-0.252s-0.302-0.504-0.302-1.007V18.38
		c0-0.504,0.101-0.839,0.302-1.008c0.201-0.167,0.537-0.251,1.008-0.251h6.146c0.436,0,0.764,0.075,0.982,0.227
		c0.218,0.151,0.327,0.462,0.327,0.932v0.302c0.201-0.101,0.596-0.268,1.184-0.503c0.587-0.235,1.268-0.479,2.04-0.73
		s1.587-0.479,2.443-0.68s1.67-0.302,2.443-0.302c2.283,0,4.172,0.353,5.667,1.058c1.493,0.705,2.678,1.755,3.551,3.148
		c0.873,1.394,1.478,3.107,1.813,5.138c0.336,2.032,0.504,4.375,0.504,7.027v15.817c0,0.503-0.101,0.839-0.302,1.007
		c-0.202,0.168-0.538,0.252-1.008,0.252H215.8c-0.471,0-0.806-0.084-1.008-0.252c-0.201-0.168-0.302-0.504-0.302-1.007V32.736z"/>
	<path fill="#3651F1" d="M244.914,42.559c0.974,0,1.981-0.017,3.022-0.05c1.04-0.034,2.048-0.076,3.022-0.126
		c0.974-0.051,1.871-0.109,2.694-0.177s1.52-0.118,2.091-0.151c0.403-0.033,0.713,0.009,0.932,0.126
		c0.219,0.118,0.345,0.563,0.378,1.335l0.051,3.879c0,0.672-0.109,1.091-0.327,1.26c-0.22,0.167-0.547,0.302-0.982,0.402
		c-0.604,0.134-1.369,0.294-2.292,0.479c-0.925,0.185-1.932,0.354-3.022,0.504c-1.092,0.151-2.234,0.285-3.426,0.403
		c-1.192,0.117-2.359,0.176-3.501,0.176c-2.485,0-4.609-0.319-6.372-0.957s-3.224-1.637-4.383-2.997
		c-1.158-1.359-2.007-3.09-2.543-5.188c-0.538-2.098-0.807-4.625-0.807-7.581c0-5.843,1.217-10.226,3.652-13.147
		c2.435-2.921,6.053-4.382,10.855-4.382c4.836,0,8.42,1.209,10.755,3.627c2.333,2.418,3.501,6.112,3.501,11.083v4.13
		c0,0.773-0.135,1.302-0.403,1.587c-0.27,0.286-0.772,0.429-1.511,0.429h-17.983c0.033,1.914,0.554,3.282,1.562,4.105
		C240.884,42.147,242.563,42.559,244.914,42.559z M249.599,30.52c0-2.35-0.42-4.004-1.259-4.961
		c-0.84-0.957-2.301-1.436-4.383-1.436c-2.116,0-3.585,0.521-4.408,1.562s-1.251,2.653-1.284,4.835H249.599z"/>
	<path fill="#3651F1" d="M288.789,23.619c0,0.437-0.033,0.764-0.101,0.982c-0.067,0.219-0.168,0.377-0.302,0.479
		c-0.135,0.101-0.295,0.151-0.479,0.151c-0.186,0-0.378-0.017-0.58-0.05c-0.638-0.067-1.41-0.151-2.316-0.252
		c-0.907-0.101-1.856-0.202-2.847-0.302s-1.956-0.184-2.896-0.252c-0.94-0.067-1.763-0.101-2.468-0.101
		c-1.881,0-3.115,0.21-3.702,0.63c-0.589,0.42-0.882,1.066-0.882,1.939c0,0.369,0.092,0.68,0.277,0.932
		c0.184,0.252,0.503,0.471,0.957,0.655c0.453,0.185,1.083,0.36,1.889,0.528c0.806,0.169,1.813,0.353,3.022,0.555
		c2.183,0.336,4.005,0.764,5.466,1.284c1.46,0.521,2.636,1.184,3.525,1.989c0.89,0.807,1.528,1.797,1.914,2.973
		s0.58,2.586,0.58,4.231c0,1.914-0.303,3.542-0.907,4.886c-0.604,1.343-1.479,2.443-2.619,3.3c-1.143,0.856-2.536,1.478-4.181,1.863
		c-1.646,0.386-3.493,0.579-5.542,0.579c-0.873,0-1.821-0.05-2.846-0.15s-2.04-0.219-3.048-0.353
		c-1.007-0.135-1.956-0.277-2.846-0.429c-0.891-0.151-1.654-0.277-2.292-0.378c-0.471-0.101-0.84-0.244-1.108-0.428
		c-0.269-0.186-0.387-0.68-0.353-1.486l0.151-4.181c0.033-1.041,0.47-1.512,1.31-1.41c0.604,0.066,1.36,0.15,2.267,0.251
		c0.907,0.102,1.839,0.193,2.796,0.277s1.889,0.159,2.796,0.227c0.906,0.067,1.679,0.101,2.317,0.101
		c2.115,0,3.533-0.193,4.256-0.579c0.722-0.386,1.083-1.015,1.083-1.889c0-0.369-0.067-0.68-0.201-0.932
		c-0.135-0.252-0.387-0.479-0.756-0.681c-0.37-0.201-0.906-0.394-1.611-0.579c-0.706-0.184-1.63-0.378-2.771-0.579
		c-2.116-0.335-3.947-0.738-5.491-1.209c-1.545-0.47-2.82-1.091-3.828-1.864c-1.008-0.771-1.755-1.745-2.242-2.921
		c-0.486-1.176-0.729-2.637-0.729-4.383c0-1.914,0.335-3.542,1.007-4.886c0.672-1.343,1.587-2.443,2.745-3.299
		c1.159-0.856,2.511-1.486,4.056-1.889c1.544-0.403,3.173-0.604,4.886-0.604c0.873,0,1.839,0.05,2.896,0.151
		c1.058,0.101,2.107,0.219,3.148,0.353c1.041,0.134,2.031,0.286,2.972,0.453c0.94,0.168,1.713,0.302,2.317,0.403
		c0.437,0.067,0.781,0.201,1.033,0.403s0.36,0.723,0.327,1.562L288.789,23.619z"/>
</g>
</svg>
